<?xml version="1.0" standalone="no"?>
<!DOCTYPE svg PUBLIC "-//W3C//DTD SVG 20010904//EN"
 "http://www.w3.org/TR/2001/REC-SVG-20010904/DTD/svg10.dtd">
<svg version="1.0" xmlns="http://www.w3.org/2000/svg"
 width="236.000000pt" height="236.000000pt" viewBox="0 0 236.000000 236.000000"
 preserveAspectRatio="xMidYMid meet">
<metadata>
Created by potrace 1.14, written by Peter Selinger 2001-2017
</metadata>
<g transform="translate(0.000000,236.000000) scale(0.100000,-0.100000)"
fill="#000000" stroke="none">
<path d="M0 1180 l0 -1181 146 3 145 3 60 159 c32 88 59 169 60 180 1 44 79
-230 79 -278 0 -42 2 -47 15 -36 13 10 15 9 15 -9 0 -11 5 -21 11 -21 7 0 9 9
5 23 -4 12 -13 65 -21 117 -15 98 -38 177 -73 245 -28 57 -81 189 -102 260
-17 53 -17 57 -2 35 25 -36 73 -90 81 -90 3 0 5 80 4 177 -2 174 -2 176 11
108 19 -97 52 -216 80 -283 22 -54 23 -66 18 -217 -3 -105 0 -186 8 -235 7
-41 12 -90 12 -108 -1 -17 0 -32 3 -32 2 0 18 44 34 97 29 94 33 100 98 161
73 69 76 68 87 -12 7 -60 43 -125 73 -132 18 -5 23 -15 28 -52 12 -90 15 -65
8 96 l-6 163 24 -5 c73 -17 82 -15 168 30 47 25 93 52 102 60 14 12 17 11 28
-10 8 -13 40 -50 72 -81 34 -33 63 -72 70 -93 18 -56 48 -112 60 -112 19 0 1
62 -32 109 -17 25 -32 51 -33 58 -1 7 -21 26 -44 43 -40 29 -78 80 -136 182
-17 31 -36 50 -52 54 -14 4 -22 10 -17 14 4 4 64 22 133 40 69 18 130 37 135
43 7 6 3 8 -10 4 -11 -3 -96 -26 -190 -52 -115 -31 -192 -47 -239 -48 -69 -2
-70 -2 -92 33 -38 58 -118 159 -122 155 -2 -2 16 -35 42 -73 25 -38 48 -75 51
-83 8 -21 68 -59 92 -59 12 0 24 -8 27 -18 10 -30 69 -80 108 -90 24 -7 52 -7
80 0 63 14 65 24 5 20 -58 -4 -56 6 4 31 35 14 36 14 52 -13 20 -33 24 -28
-89 -93 -88 -51 -121 -57 -182 -32 -48 21 -77 48 -118 112 -34 52 -94 214 -94
249 1 11 11 -12 24 -51 37 -114 75 -183 131 -241 29 -30 59 -54 65 -54 7 0
-10 20 -37 45 -30 26 -65 72 -86 112 -39 75 -92 228 -83 242 3 5 -16 53 -42
107 -47 98 -47 100 -50 217 -3 77 0 117 7 117 6 0 8 6 5 14 -3 8 5 21 18 30
33 23 46 20 40 -9 -2 -14 -11 -25 -18 -25 -8 0 -13 -3 -13 -7 4 -23 -3 -32
-18 -26 -15 5 -16 4 -5 -8 11 -12 15 -11 26 4 14 18 42 25 31 7 -3 -6 1 -7 9
-4 9 3 14 10 11 14 -3 5 -1 11 5 15 5 3 10 -1 10 -10 0 -9 -23 -41 -51 -71
-56 -58 -55 -75 1 -22 24 24 31 27 26 13 -19 -51 -17 -101 4 -155 23 -59 38
-74 56 -59 10 8 9 16 -2 37 -9 17 -14 57 -13 107 l0 80 16 -37 c8 -21 20 -38
25 -38 6 0 7 8 3 18 -27 65 -29 132 -5 132 15 0 121 102 135 130 7 14 18 57
25 95 15 82 19 89 79 120 25 13 41 24 36 25 -6 0 -31 -11 -57 -25 -42 -23 -46
-23 -41 -5 6 22 80 51 127 49 29 -1 30 -1 6 -8 -40 -11 -7 -21 41 -12 42 7 46
6 82 -28 20 -19 37 -30 37 -25 0 6 -11 21 -25 34 -13 12 -22 26 -20 30 3 5 -5
11 -18 14 -34 10 -160 170 -172 219 -4 13 1 43 9 67 17 50 13 69 -5 24 -26
-64 -50 -176 -69 -314 -38 -271 -42 -281 -143 -358 -45 -34 -54 -47 -69 -98
-24 -80 -22 -136 8 -209 7 -17 6 -18 -8 -7 -8 7 -21 44 -28 85 -11 66 -10 77
9 132 12 33 23 65 25 70 1 6 10 27 19 49 9 21 17 40 17 41 0 9 -81 13 -112 6
-21 -5 -38 -5 -38 0 0 13 67 22 116 15 24 -3 44 -2 44 3 0 13 -83 23 -116 15
l-28 -7 24 39 c37 60 162 235 166 231 2 -2 -1 -19 -6 -38 -4 -19 -12 -62 -15
-97 -7 -58 -9 -62 -29 -56 -21 7 -21 6 -2 -14 11 -13 16 -28 12 -39 -5 -12 -4
-15 3 -8 5 6 22 78 36 160 29 172 82 352 130 443 18 34 29 62 24 62 -4 0 -59
-90 -121 -199 -62 -110 -114 -198 -116 -197 -1 2 22 50 53 106 54 102 71 151
22 68 -78 -135 -187 -383 -187 -428 0 -11 -9 -29 -20 -40 -12 -12 -18 -25 -15
-30 4 -6 2 -10 -4 -10 -5 0 -12 30 -15 68 -4 37 -10 85 -15 107 l-9 40 -1 -51
c0 -28 7 -91 16 -140 9 -49 17 -141 18 -204 1 -102 4 -122 29 -180 16 -36 32
-97 37 -135 9 -78 51 -230 75 -277 24 -46 2 -31 -74 53 -169 186 -223 318
-221 544 1 50 4 117 8 150 l7 60 8 -90 c17 -196 67 -372 132 -467 40 -57 40
-39 0 28 -35 61 -75 174 -98 279 -7 36 -13 132 -13 240 l0 180 39 110 c45 129
113 266 156 315 37 41 37 41 -19 -74 -39 -80 -108 -313 -96 -324 4 -5 25 42
25 56 0 20 93 229 126 284 74 122 211 237 282 238 27 0 29 16 3 29 -45 24
-162 -38 -244 -129 -25 -27 -47 -45 -49 -39 -6 18 -94 -105 -133 -185 -83
-174 -134 -382 -144 -591 l-6 -140 -19 110 c-12 67 -20 157 -20 230 0 102 3
127 22 168 12 26 17 47 13 47 -5 0 -13 -12 -19 -27 -36 -92 -67 -182 -98 -286
-31 -108 -34 -132 -35 -255 l-2 -137 -10 85 c-18 146 20 443 79 631 18 58 40
98 86 160 123 162 348 363 444 396 33 11 64 13 112 9 85 -8 95 -8 163 0 67 8
125 -14 198 -75 40 -34 61 -68 158 -262 107 -214 189 -356 200 -345 3 3 -13
34 -35 69 -22 35 -90 163 -150 283 -98 195 -115 224 -160 261 -72 61 -116 84
-175 93 l-52 8 42 1 c124 3 246 -95 353 -286 19 -34 58 -99 86 -145 320 -519
398 -682 438 -911 17 -96 48 -182 78 -214 l20 -21 -20 -11 c-58 -31 -100 -6
-145 84 -49 99 -121 383 -115 460 1 22 -2 68 -6 101 -7 49 -13 64 -30 72 -11
5 -43 26 -70 47 -46 35 -53 37 -80 27 -21 -8 -33 -8 -42 -1 -7 6 -19 7 -25 3
-7 -4 -9 -3 -5 4 3 6 -6 20 -21 32 -16 11 -62 55 -104 96 -76 75 -77 77 -104
172 -34 120 -91 268 -118 304 -32 43 -30 27 3 -33 60 -108 170 -499 173 -616
1 -34 5 -55 8 -46 10 31 19 -45 17 -151 l-2 -101 -7 110 c-4 73 -5 44 -3 -88
4 -181 37 -544 51 -557 3 -3 3 24 0 60 -4 36 -9 155 -12 265 -3 110 -8 227
-10 260 -7 97 4 50 29 -126 13 -90 24 -148 25 -129 1 33 -38 318 -58 425 -5
27 -8 51 -7 52 1 2 18 -6 38 -17 20 -10 39 -16 42 -13 3 4 6 1 6 -6 0 -8 7
-10 21 -6 28 9 59 36 59 52 0 7 14 22 31 32 l32 19 67 -46 c66 -46 68 -48 76
-102 14 -89 10 -103 -53 -164 -48 -46 -66 -56 -103 -61 -62 -9 -100 -27 -43
-21 49 5 53 -2 78 -122 18 -89 47 -159 94 -232 42 -64 80 -88 150 -97 l50 -6
-27 -20 c-15 -11 -77 -69 -138 -129 -61 -59 -118 -108 -127 -108 -23 0 -75 68
-98 130 -12 30 -30 98 -40 150 -22 107 -27 125 -35 118 -9 -10 44 -233 69
-289 50 -114 124 -166 192 -138 17 7 35 11 42 10 6 -1 28 20 48 46 35 45 37
46 31 18 -18 -90 -47 -290 -44 -309 2 -11 16 58 31 154 33 207 39 230 74 261
l25 24 -7 -23 c-27 -90 -81 -419 -70 -430 3 -3 5 3 6 14 0 18 1 18 9 -1 6 -14
9 5 9 57 1 77 28 242 58 350 12 44 26 68 63 104 62 61 76 68 130 66 l45 -2
-40 19 c-48 22 -101 79 -126 135 -10 23 -27 86 -38 141 -38 191 -104 338 -297
659 -128 213 -137 215 109 -24 183 -178 254 -273 271 -360 l6 -35 -34 50 c-18
28 -77 100 -130 160 -54 61 -127 149 -163 198 -37 48 -68 87 -69 87 -2 0 6
-17 17 -37 26 -46 61 -90 204 -256 147 -170 178 -222 194 -325 10 -70 24 -132
47 -217 11 -40 -79 114 -153 260 -78 158 -84 165 -33 41 35 -82 146 -282 219
-391 57 -85 70 -108 41 -75 -12 14 -56 80 -98 147 -41 68 -78 121 -80 118 -2
-2 31 -64 74 -136 79 -132 136 -202 174 -212 20 -5 20 0 20 909 l0 914 -1180
0 -1180 0 0 -1180z m1107 994 c-3 -3 -12 -4 -19 -1 -8 3 -5 6 6 6 11 1 17 -2
13 -5z m371 -54 c71 -36 103 -60 187 -144 56 -56 118 -121 138 -146 52 -65 45
-43 -9 26 -91 118 -199 218 -294 273 l-55 32 65 -7 c36 -3 87 -15 114 -25 51
-19 146 -78 146 -91 0 -4 19 -35 42 -69 49 -75 122 -228 171 -359 40 -108 118
-344 111 -337 -2 2 -19 24 -37 49 -44 63 -158 180 -311 323 -124 115 -174 178
-250 310 -38 66 -110 151 -160 188 l-41 29 49 -5 c28 -3 84 -22 134 -47z
m-530 -35 c-105 -39 -213 -153 -295 -313 -45 -89 -32 -39 18 65 50 105 129
191 211 233 34 16 71 30 82 29 14 0 9 -5 -16 -14z m-78 -322 c-11 -32 -24 -76
-30 -98 -5 -22 -47 -92 -93 -156 -45 -64 -87 -125 -94 -135 -27 -42 19 72 51
125 18 31 66 116 106 189 39 72 74 132 75 132 2 0 -5 -26 -15 -57z m221 -114
l39 -46 -56 -7 c-30 -3 -71 -13 -90 -21 -19 -8 -34 -11 -34 -7 0 20 31 196 36
204 3 5 19 -11 36 -34 17 -24 48 -64 69 -89z m-480 24 c-12 -20 -14 -14 -5 12
4 9 9 14 11 11 3 -2 0 -13 -6 -23z m949 -253 l25 -21 -25 12 c-27 13 -160 143
-160 156 0 4 30 -23 68 -59 37 -37 78 -77 92 -88z m17 -35 c37 -16 40 -20 31
-41 -6 -13 -16 -20 -24 -17 -12 4 -12 8 -2 21 11 13 8 13 -19 -1 -35 -18 -80
-22 -102 -8 -7 5 -19 37 -26 72 -7 35 -16 76 -19 90 -6 22 3 16 56 -36 35 -34
82 -70 105 -80z m-22 -65 c-3 -5 -12 -10 -18 -10 -7 0 -6 4 3 10 19 12 23 12
15 0z m294 -290 c39 -209 120 -422 170 -447 24 -11 24 -12 -12 -18 -65 -12
-124 3 -162 41 -46 46 -100 161 -125 267 -11 49 -25 97 -30 108 -8 14 -7 19 3
19 8 0 26 9 40 20 l26 21 5 -23 c24 -124 55 -233 82 -290 38 -77 54 -93 23
-20 -29 66 -70 185 -65 189 2 2 14 -26 27 -64 12 -37 32 -90 44 -118 12 -27
20 -55 18 -61 -4 -12 42 -54 60 -54 6 0 3 8 -6 18 -26 28 -74 139 -127 292
l-49 142 27 29 c14 16 29 25 32 21 4 -4 12 -36 19 -72z m-392 -92 c-2 -13 -4
-3 -4 22 0 25 2 35 4 23 2 -13 2 -33 0 -45z m-780 -205 c-3 -10 -5 -2 -5 17 0
19 2 27 5 18 2 -10 2 -26 0 -35z m-154 -45 c14 -24 51 -71 81 -106 63 -71 92
-130 105 -211 l9 -56 -43 -44 -43 -44 14 59 c16 68 18 154 4 154 -17 0 -71 89
-115 191 -24 54 -42 99 -40 99 2 0 14 -19 28 -42z m1618 -55 c13 -16 12 -17
-3 -4 -17 13 -22 21 -14 21 2 0 10 -8 17 -17z m-1529 -176 c13 -18 23 -35 23
-39 0 -3 3 -9 6 -12 10 -10 -9 -117 -37 -214 -37 -124 -44 -101 -37 114 l6
167 19 -27 c11 -14 25 -26 31 -26 6 0 1 10 -10 23 -23 25 -73 109 -73 123 0 5
11 -10 25 -34 14 -24 35 -58 47 -75z m1432 71 c-22 -24 -52 -57 -66 -75 -14
-18 -28 -29 -32 -26 -3 3 -10 -7 -16 -23 -15 -37 -86 -130 -102 -133 -7 -1
-35 -4 -61 -7 l-48 -6 115 112 c108 106 219 198 241 199 5 1 -9 -18 -31 -41z
m-941 10 c41 -16 33 -36 -18 -43 -50 -8 -138 10 -156 31 -9 12 -6 14 22 15 19
1 45 5 59 9 26 8 47 6 93 -12z m-546 -145 c-2 -21 -4 -4 -4 37 0 41 2 58 4 38
2 -21 2 -55 0 -75z m493 67 c-13 -8 -47 -2 -54 9 -3 4 11 5 31 3 21 -3 30 -7
23 -12z m-300 -75 c4 -25 3 -48 -2 -51 -4 -3 -8 13 -8 35 0 21 -3 48 -7 58 -3
10 -3 15 2 11 4 -4 11 -28 15 -53z m43 -25 c-9 -42 -23 -47 -23 -8 0 20 -5 49
-10 65 l-11 28 25 -30 c17 -21 23 -37 19 -55z m71 -88 c3 -37 6 -87 6 -111 l0
-44 -21 19 c-32 28 -49 76 -49 138 0 41 4 57 17 64 30 17 40 2 47 -66z m-385
-32 c12 -40 19 -75 17 -77 -3 -4 -38 106 -52 162 -13 54 17 -18 35 -85z m68
48 c-3 -8 -6 -5 -6 6 -1 11 2 17 5 13 3 -3 4 -12 1 -19z m837 -114 c3 -8 2
-12 -4 -9 -6 3 -10 10 -10 16 0 14 7 11 14 -7z"/>
<path d="M1113 2021 c41 -49 130 -239 167 -356 17 -55 35 -109 40 -120 23 -53
7 24 -25 123 -43 135 -151 350 -185 371 -24 16 -24 15 3 -18z"/>
<path d="M1040 1992 c0 -15 4 -21 12 -16 7 4 8 3 4 -5 -9 -14 60 -145 113
-216 20 -27 52 -76 70 -107 18 -32 37 -61 43 -64 6 -4 -3 17 -20 47 -26 46
-85 156 -160 297 -9 18 -27 45 -39 60 -22 27 -22 27 -23 4z m81 -124 c10 -21
17 -38 15 -38 -5 0 -56 90 -56 99 0 8 17 -17 41 -61z"/>
<path d="M1250 1496 c0 -3 15 -19 33 -35 33 -32 59 -43 37 -16 -16 19 -70 59
-70 51z"/>
<path d="M1095 1470 c-13 -6 -15 -9 -5 -9 8 0 22 4 30 9 18 12 2 12 -25 0z"/>
<path d="M1170 1457 c0 -13 -9 -17 -44 -17 -28 0 -52 -7 -68 -20 -24 -18 -38
-18 -38 1 0 5 12 15 28 23 15 8 23 15 19 16 -15 0 -63 -29 -78 -47 -13 -16
-12 -17 2 -5 14 10 18 10 22 -2 3 -8 -1 -20 -9 -26 -18 -16 -18 -50 0 -50 8 0
18 5 21 10 6 9 87 50 100 50 9 0 -7 -54 -19 -62 -6 -4 -22 -8 -35 -8 -13 0
-22 -2 -19 -5 8 -8 148 -11 148 -3 0 4 18 6 40 5 30 -1 46 5 63 21 13 14 16
21 7 17 -11 -4 -20 6 -31 37 -14 38 -20 43 -50 46 -19 2 -40 10 -46 19 -12 16
-13 15 -13 0z"/>
<path d="M1280 1416 c0 -15 28 -36 48 -36 6 0 8 9 5 20 -3 11 -9 20 -13 20 -5
0 -15 3 -24 6 -10 4 -16 1 -16 -10z"/>
<path d="M1676 1324 c-10 -26 -7 -29 10 -8 14 17 15 17 10 1 -3 -10 -6 -21 -6
-23 0 -2 -7 -4 -15 -4 -8 0 -15 -4 -15 -9 0 -5 -12 -24 -27 -42 -16 -18 -22
-30 -15 -25 7 4 26 2 42 -6 22 -9 30 -20 30 -38 -1 -34 -22 -69 -51 -83 -13
-7 -25 -21 -27 -31 -3 -16 1 -14 34 8 21 14 50 26 64 26 32 0 51 14 78 61 33
55 26 61 -8 7 -19 -30 -37 -48 -49 -48 -11 0 -27 -3 -36 -7 -15 -5 -16 -3 -5
17 7 13 10 41 8 65 -3 23 -1 50 4 59 11 19 74 22 81 4 2 -7 8 -10 11 -6 4 3
-3 14 -17 23 -33 21 -75 10 -88 -22 -10 -27 -36 -26 -31 0 1 9 17 30 34 47 27
27 34 30 55 21 12 -6 23 -8 23 -5 0 6 -65 34 -79 34 -5 0 -12 -7 -15 -16z"/>
<path d="M1316 1305 c-11 -8 -31 -16 -45 -16 -19 -1 -21 -3 -8 -6 21 -5 77 15
77 28 0 12 -1 11 -24 -6z"/>
<path d="M1140 1280 c0 -5 18 -10 40 -10 22 0 40 5 40 10 0 6 -18 10 -40 10
-22 0 -40 -4 -40 -10z"/>
<path d="M1760 1220 c0 -5 5 -10 11 -10 5 0 7 5 4 10 -3 6 -8 10 -11 10 -2 0
-4 -4 -4 -10z"/>
<path d="M1375 1060 c22 -231 89 -607 121 -675 16 -34 18 -45 -21 131 -29 131
-58 314 -76 469 -6 61 -16 117 -21 125 -5 9 -7 -10 -3 -50z"/>
<path d="M1582 942 c-2 -43 -21 -92 -50 -125 -8 -9 -13 -19 -11 -22 3 -2 20
18 37 46 28 42 33 57 29 97 l-3 47 -2 -43z"/>
<path d="M805 876 c-22 -14 -34 -26 -27 -26 7 0 25 8 39 18 35 22 211 24 237
3 12 -10 20 -11 27 -4 20 20 -14 28 -126 31 -103 3 -112 1 -150 -22z"/>
<path d="M1580 840 c-17 -34 -29 -64 -26 -67 10 -10 37 20 32 34 -3 8 -2 11 4
8 5 -3 14 5 21 17 11 21 11 22 -5 9 -15 -12 -16 -12 -10 5 4 10 12 25 17 32 5
7 7 15 4 18 -3 3 -20 -22 -37 -56z"/>
<path d="M1610 729 c0 -41 5 -81 10 -89 7 -10 8 12 4 70 -4 47 -8 87 -10 89
-2 2 -4 -29 -4 -70z"/>
<path d="M1521 764 c0 -11 3 -14 6 -6 3 7 2 16 -1 19 -3 4 -6 -2 -5 -13z"/>
<path d="M1510 341 c0 -6 4 -13 10 -16 6 -3 7 1 4 9 -7 18 -14 21 -14 7z"/>
<path d="M1510 303 c0 -19 68 -69 109 -82 42 -12 112 -13 151 -2 16 5 -5 8
-55 7 -86 -1 -125 13 -177 62 -16 14 -28 21 -28 15z"/>
<path d="M907 155 c3 -82 7 -152 9 -154 8 -8 1 245 -6 274 -5 17 -6 -37 -3
-120z"/>
<path d="M961 264 c40 -41 123 -98 159 -109 14 -4 39 -20 55 -35 17 -15 46
-36 66 -48 19 -12 41 -33 47 -47 6 -14 19 -25 27 -25 21 0 -40 77 -67 86 -10
3 -37 20 -61 38 -23 18 -64 43 -91 56 -26 14 -73 46 -103 72 -64 57 -81 63
-32 12z"/>
<path d="M1710 159 c-25 -22 -62 -52 -83 -66 -20 -14 -35 -28 -32 -31 2 -3 22
7 42 22 53 37 140 116 128 116 -6 -1 -30 -19 -55 -41z"/>
<path d="M1521 20 c-17 -15 -19 -20 -7 -20 8 0 20 9 26 20 13 25 11 25 -19 0z"/>
</g>
</svg>
